<svg width="157" height="46" viewBox="0 0 157 46" fill="none" xmlns="http://www.w3.org/2000/svg">
<path d="M60.5 29H56C56 15.8 57 11.5 60.5 11.5C61 11.5 63 11.5 67 11.5C71 11.5 71.5 13 71.5 29H67.5M60.5 29C60.3333 30.3333 60.8 33 64 33C67.2 33 67.6667 30.3333 67.5 29M60.5 29H67.5" stroke="#BFBFBF"/>
<circle cx="71" cy="14" r="3" fill="#FFB600"/>
<circle cx="134" cy="23" r="23" fill="#D9D9D9"/>
<circle cx="133.999" cy="23" r="19.5854" fill="#D9D9D9"/>
<circle cx="134" cy="23" r="20.926" stroke="white" stroke-width="2.14808"/>
<mask id="mask0_577_402" style="mask-type:alpha" maskUnits="userSpaceOnUse" x="114" y="3" width="40" height="40">
<circle cx="133.999" cy="23" r="19.5854" fill="#D9D9D9"/>
</mask>
<g mask="url(#mask0_577_402)">
<path d="M96.8604 45.3852C96.8542 45.4037 96.848 45.4223 96.8418 45.4409L94.293 44.9043C95.0954 45.0633 95.9531 45.2243 96.8604 45.3852C103.138 26.6134 98.8849 2.92199 130.11 8.55058C161.366 14.1847 180.549 30.9531 159.757 42.3555C144.019 50.9859 112.791 48.2089 96.8604 45.3852Z" fill="#4260FF"/>
<path d="M93.7345 44.5656C93.7242 44.5823 93.714 44.5989 93.7037 44.6156L91.3433 43.5143C92.0886 43.8514 92.8874 44.2029 93.7345 44.5656C104.11 27.7095 105.347 3.67112 134.479 16.2425C163.64 28.8263 178.514 49.5123 155.676 55.8959C138.389 60.7275 108.608 50.9326 93.7345 44.5656Z" fill="#6C83FF"/>
<path d="M93.7345 44.5656C93.7242 44.5823 93.714 44.5989 93.7037 44.6156L91.3433 43.5143C92.0886 43.8514 92.8874 44.2029 93.7345 44.5656C104.11 27.7095 105.347 3.67112 134.479 16.2425C163.64 28.8263 178.514 49.5123 155.676 55.8959C138.389 60.7275 108.608 50.9326 93.7345 44.5656Z" fill="#6C83FF"/>
<path d="M92.7753 41.5279C92.761 41.5413 92.7467 41.5547 92.7323 41.568L90.7463 39.8829C91.3762 40.4047 92.0539 40.9546 92.7753 41.5279C107.232 28.0078 114.769 5.14815 139.55 24.9621C164.356 44.7957 173.244 68.6739 149.53 68.8037C131.582 68.9019 105.441 51.5944 92.7753 41.5279Z" fill="#6C83FF"/>
<path d="M92.7753 41.5279C92.761 41.5413 92.7467 41.5547 92.7323 41.568L90.7463 39.8829C91.3762 40.4047 92.0539 40.9546 92.7753 41.5279C107.232 28.0078 114.769 5.14815 139.55 24.9621C164.356 44.7957 173.244 68.6739 149.53 68.8037C131.582 68.9019 105.441 51.5944 92.7753 41.5279Z" fill="#94A5FF"/>
</g>
<circle cx="9" cy="21" r="8.25" stroke="#C6C6C6" stroke-width="1.5"/>
<rect x="13" y="27.1211" width="3" height="5.67205" rx="1.5" transform="rotate(-45 13 27.1211)" fill="#C6C6C6"/>
</svg>
