<svg width="157" height="46" viewBox="0 0 157 46" fill="none" xmlns="http://www.w3.org/2000/svg">
<path d="M60.5 29H56C56 15.8 57 11.5 60.5 11.5C61 11.5 63 11.5 67 11.5C71 11.5 71.5 13 71.5 29H67.5M60.5 29C60.3333 30.3333 60.8 33 64 33C67.2 33 67.6667 30.3333 67.5 29M60.5 29H67.5" stroke="#BFBFBF"/>
<circle cx="71" cy="14" r="3" fill="#FFB600"/>
<circle cx="134" cy="23" r="23" fill="#D9D9D9"/>
<circle cx="134" cy="23.0002" r="19.5854" fill="#D9D9D9"/>
<circle cx="134" cy="23" r="20.926" stroke="white" stroke-width="2.14808"/>
<mask id="mask0_577_498" style="mask-type:alpha" maskUnits="userSpaceOnUse" x="114" y="3" width="40" height="40">
<circle cx="134" cy="23.0002" r="19.5854" fill="#D9D9D9"/>
</mask>
<g mask="url(#mask0_577_498)">
<path d="M96.8604 45.3854C96.8542 45.404 96.848 45.4226 96.8418 45.4411L94.293 44.9045C95.0954 45.0636 95.9531 45.2246 96.8604 45.3854C103.138 26.6137 98.8849 2.92224 130.11 8.55082C161.366 14.185 180.549 30.9533 159.757 42.3558C144.019 50.9862 112.791 48.2091 96.8604 45.3854Z" fill="#4260FF"/>
<path d="M93.7345 44.5658C93.7242 44.5825 93.714 44.5992 93.7037 44.6159L91.3433 43.5146C92.0886 43.8517 92.8874 44.2032 93.7345 44.5658C104.11 27.7098 105.347 3.67136 134.479 16.2427C163.64 28.8266 178.514 49.5125 155.676 55.8961C138.389 60.7278 108.608 50.9328 93.7345 44.5658Z" fill="#6C83FF"/>
<path d="M93.7345 44.5658C93.7242 44.5825 93.714 44.5992 93.7037 44.6159L91.3433 43.5146C92.0886 43.8517 92.8874 44.2032 93.7345 44.5658C104.11 27.7098 105.347 3.67136 134.479 16.2427C163.64 28.8266 178.514 49.5125 155.676 55.8961C138.389 60.7278 108.608 50.9328 93.7345 44.5658Z" fill="#6C83FF"/>
<path d="M92.7772 41.5282C92.7629 41.5415 92.7486 41.5549 92.7343 41.5683L90.7482 39.8831C91.3782 40.4049 92.0559 40.9548 92.7772 41.5282C107.234 28.0081 114.771 5.1484 139.552 24.9624C164.358 44.7959 173.246 68.6741 149.532 68.8039C131.584 68.9022 105.443 51.5947 92.7772 41.5282Z" fill="#6C83FF"/>
<path d="M92.7772 41.5282C92.7629 41.5415 92.7486 41.5549 92.7343 41.5683L90.7482 39.8831C91.3782 40.4049 92.0559 40.9548 92.7772 41.5282C107.234 28.0081 114.771 5.1484 139.552 24.9624C164.358 44.7959 173.246 68.6741 149.532 68.8039C131.584 68.9022 105.443 51.5947 92.7772 41.5282Z" fill="#94A5FF"/>
</g>
<circle cx="9" cy="21" r="8.25" stroke="#C6C6C6" stroke-width="1.5"/>
<rect x="13" y="27.1213" width="3" height="5.67205" rx="1.5" transform="rotate(-45 13 27.1213)" fill="#C6C6C6"/>
</svg>
